<svg width="134" height="134" viewBox="0 0 134 134" fill="none" xmlns="http://www.w3.org/2000/svg">
<path d="M46.4896 103.498C45.4965 102.497 45 101.311 45 99.9413C45 98.5715 45.4965 97.3873 46.4896 96.3887L75.5866 67.0501L46.3903 37.6113C45.4634 36.6768 45 35.5086 45 34.1067C45 32.7049 45.4965 31.5033 46.4896 30.502C47.4827 29.5007 48.6585 29 50.017 29C51.3755 29 52.55 29.5007 53.5404 30.502L86.9076 64.2464C87.3048 64.6469 87.5868 65.0808 87.7537 65.5481C87.9205 66.0154 88.0026 66.516 87.9999 67.0501C87.9999 67.5841 87.9165 68.0848 87.7497 68.552C87.5829 69.0193 87.3021 69.4532 86.9076 69.8538L53.4411 103.598C52.5142 104.533 51.3715 105 50.013 105C48.6545 105 47.48 104.499 46.4896 103.498Z" fill="white"/>
</svg>
