<svg width="133" height="134" viewBox="0 0 133 134" fill="none" xmlns="http://www.w3.org/2000/svg">
<g filter="url(#filter0_d_80_1173)">
<path d="M53.8571 101.2C53.8571 103.29 55.7536 105 58.0714 105H74.9286C77.2464 105 79.1429 103.29 79.1429 101.2V97.4H53.8571V101.2ZM66.5 29C50.2329 29 37 40.932 37 55.6C37 64.644 42.015 72.586 49.6429 77.412V86C49.6429 88.09 51.5393 89.8 53.8571 89.8H79.1429C81.4607 89.8 83.3571 88.09 83.3571 86V77.412C90.985 72.586 96 64.644 96 55.6C96 40.932 82.7671 29 66.5 29ZM78.5107 71.18L74.9286 73.46V82.2H58.0714V73.46L54.4893 71.18C51.6973 69.4347 49.415 67.1062 47.8373 64.3932C46.2595 61.6802 45.4331 58.6634 45.4286 55.6C45.4286 45.112 54.8686 36.6 66.5 36.6C78.1314 36.6 87.5714 45.112 87.5714 55.6C87.5714 61.794 84.2 67.608 78.5107 71.18Z" fill="white"/>
</g>
<defs>
<filter id="filter0_d_80_1173" x="28" y="20" width="81" height="98" filterUnits="userSpaceOnUse" color-interpolation-filters="sRGB">
<feFlood flood-opacity="0" result="BackgroundImageFix"/>
<feColorMatrix in="SourceAlpha" type="matrix" values="0 0 0 0 0 0 0 0 0 0 0 0 0 0 0 0 0 0 127 0" result="hardAlpha"/>
<feOffset dx="2" dy="2"/>
<feGaussianBlur stdDeviation="5.5"/>
<feComposite in2="hardAlpha" operator="out"/>
<feColorMatrix type="matrix" values="0 0 0 0 1 0 0 0 0 1 0 0 0 0 1 0 0 0 0.25 0"/>
<feBlend mode="normal" in2="BackgroundImageFix" result="effect1_dropShadow_80_1173"/>
<feBlend mode="normal" in="SourceGraphic" in2="effect1_dropShadow_80_1173" result="shape"/>
</filter>
</defs>
</svg>
