<svg width="134" height="134" viewBox="0 0 134 134" fill="none" xmlns="http://www.w3.org/2000/svg">
<path d="M36.6667 102C34.2833 102 32.2423 101.238 30.5437 99.7133C28.845 98.1889 27.9971 96.3585 28 94.2222V39.7778C28 37.6389 28.8493 35.8072 30.548 34.2828C32.2467 32.7583 34.2862 31.9974 36.6667 32H97.3333C99.7167 32 101.758 32.7622 103.456 34.2867C105.155 35.8111 106.003 37.6415 106 39.7778V94.2222C106 96.3611 105.151 98.1928 103.452 99.7172C101.753 101.242 99.7138 102.003 97.3333 102H36.6667ZM36.6667 94.2222H62.6667V39.7778H36.6667V94.2222ZM71.3333 94.2222H97.3333V67H71.3333V94.2222ZM71.3333 59.2222H97.3333V39.7778H71.3333V59.2222Z" fill="white"/>
</svg>
