<svg width="134" height="134" viewBox="0 0 134 134" fill="none" xmlns="http://www.w3.org/2000/svg">
<g filter="url(#filter0_d_80_1168)">
<path d="M102.302 73.7286C101.471 70.6272 99.9265 67.7633 97.7906 65.3663C95.6546 62.9692 92.987 61.1056 90.0015 59.9246C87.0159 58.7437 83.7953 58.2782 80.5975 58.5655C77.3997 58.8528 74.3136 59.8848 71.5864 61.579L77.2037 39.1511C77.3431 38.5939 77.3039 38.007 77.0917 37.4732C76.8796 36.9394 76.5051 36.4858 76.0213 36.1763C73.6893 34.7038 71.0849 33.7154 68.3632 33.27C65.6414 32.8245 62.8578 32.9312 60.1781 33.5835C57.4984 34.2358 54.9773 35.4205 52.7648 37.0671C50.5523 38.7137 48.6936 40.7885 47.2994 43.1681C45.9051 45.5476 45.0038 48.1833 44.649 50.9184C44.2943 53.6534 44.4933 56.4319 45.2343 59.0884C45.9753 61.7449 47.2431 64.2253 48.9623 66.3818C50.6815 68.5383 52.817 70.327 55.2416 71.6414L33.0087 77.9921C32.4564 78.1494 31.9674 78.4762 31.6107 78.9263C31.254 79.3764 31.0477 79.9272 31.0209 80.5009C30.8099 85.1822 32.2041 89.7952 34.9727 93.5759C37.7413 97.3567 41.7183 100.078 46.2449 101.291C47.9909 101.759 49.7906 101.998 51.5984 102C54.3531 101.993 57.0783 101.433 59.6127 100.353C62.147 99.2734 64.4389 97.6962 66.3526 95.7148C68.2663 93.7333 69.7629 91.388 70.7538 88.8177C71.7446 86.2473 72.2095 83.5043 72.121 80.7511L88.7366 96.8317C89.1498 97.2315 89.6782 97.4912 90.2471 97.5743C90.816 97.6573 91.3966 97.5594 91.9068 97.2944C96.0642 95.1374 99.3607 91.6258 101.251 87.3405C103.141 83.0553 103.512 78.2532 102.302 73.7286ZM60.8315 71.3296C60.8315 70.245 61.1531 69.1848 61.7557 68.283C62.3582 67.3813 63.2147 66.6784 64.2167 66.2634C65.2187 65.8483 66.3213 65.7397 67.385 65.9513C68.4487 66.1629 69.4258 66.6852 70.1927 67.4521C70.9596 68.219 71.4819 69.196 71.6935 70.2598C71.9051 71.3235 71.7965 72.426 71.3814 73.428C70.9664 74.43 70.2635 75.2864 69.3617 75.889C68.46 76.4915 67.3997 76.8131 66.3152 76.8131C64.8608 76.8131 63.466 76.2354 62.4376 75.207C61.4092 74.1787 60.8315 72.7839 60.8315 71.3296ZM49.8641 53.5079C49.8633 50.9669 50.5045 48.4669 51.7283 46.24C52.9521 44.0131 54.7188 42.1316 56.8643 40.7701C59.0098 39.4086 61.4645 38.6114 64.0005 38.4524C66.5366 38.2934 69.0717 38.7777 71.3704 39.8606L66.2363 60.3624C64.2719 60.3771 62.3474 60.9192 60.6641 61.9321C58.9808 62.9449 57.6004 64.3914 56.6673 66.1201C54.5729 64.7505 52.8537 62.8795 51.6657 60.6771C50.4776 58.4746 49.8584 56.0103 49.8641 53.5079ZM59.1179 94.4875C56.9178 95.7587 54.4322 96.4534 51.8918 96.507C49.3514 96.5607 46.8387 95.9716 44.5869 94.7944C42.3351 93.6172 40.4172 91.8902 39.0114 89.7736C37.6056 87.657 36.7575 85.2195 36.5457 82.6875L56.873 76.8817C57.8394 78.528 59.2189 79.8935 60.8749 80.8432C62.5309 81.793 64.4061 82.294 66.3152 82.2967H66.6271C66.4891 84.7932 65.7301 87.2157 64.4187 89.3446C63.1074 91.4734 61.2854 93.2411 59.1179 94.4875ZM95.5055 86.6048C94.3961 88.5291 92.8745 90.1841 91.05 91.4509L75.8602 76.7515C76.8322 75.0442 77.3264 73.1067 77.2908 71.1424C77.2552 69.1782 76.6912 67.2598 75.658 65.5889C78.5581 64.1249 81.8534 63.6366 85.0534 64.1966C88.2534 64.7566 91.1871 66.335 93.4176 68.6968C95.6481 71.0587 97.0563 74.0777 97.4325 77.3044C97.8087 80.5312 97.1328 83.7932 95.5055 86.6048Z" fill="white"/>
</g>
<defs>
<filter id="filter0_d_80_1168" x="22" y="24" width="94" height="91" filterUnits="userSpaceOnUse" color-interpolation-filters="sRGB">
<feFlood flood-opacity="0" result="BackgroundImageFix"/>
<feColorMatrix in="SourceAlpha" type="matrix" values="0 0 0 0 0 0 0 0 0 0 0 0 0 0 0 0 0 0 127 0" result="hardAlpha"/>
<feOffset dx="2" dy="2"/>
<feGaussianBlur stdDeviation="5.5"/>
<feComposite in2="hardAlpha" operator="out"/>
<feColorMatrix type="matrix" values="0 0 0 0 1 0 0 0 0 1 0 0 0 0 1 0 0 0 0.25 0"/>
<feBlend mode="normal" in2="BackgroundImageFix" result="effect1_dropShadow_80_1168"/>
<feBlend mode="normal" in="SourceGraphic" in2="effect1_dropShadow_80_1168" result="shape"/>
</filter>
</defs>
</svg>
