<svg width="133" height="134" viewBox="0 0 133 134" fill="none" xmlns="http://www.w3.org/2000/svg">
<path d="M40 93.8857H53.5V69.5429H80.5V93.8857H94V57.3714L67 39.1143L40 57.3714V93.8857ZM40 102C37.525 102 35.4055 101.205 33.6415 99.6144C31.8775 98.024 30.997 96.1144 31 93.8857V57.3714C31 56.0867 31.3195 54.8695 31.9585 53.72C32.5975 52.5705 33.478 51.6238 34.6 50.88L61.6 32.6229C62.425 32.0819 63.2875 31.6762 64.1875 31.4057C65.0875 31.1352 66.025 31 67 31C67.975 31 68.9125 31.1352 69.8125 31.4057C70.7125 31.6762 71.575 32.0819 72.4 32.6229L99.4 50.88C100.525 51.6238 101.407 52.5705 102.046 53.72C102.685 54.8695 103.003 56.0867 103 57.3714V93.8857C103 96.1171 102.118 98.028 100.354 99.6184C98.59 101.209 96.472 102.003 94 102H71.5V77.6571H62.5V102H40Z" fill="white"/>
</svg>
